# xmcd CD database file
#
# Track frame offsets:
#	150
#	11855
#	34380
#	61195
#	65675
#	77420
#	89927
#	104810
#	131272
#	142195
#	172110
#
# Disc length: 2455 seconds
#
# Revision: 5
# Processed by: cddbd v1.5PL3 Copyright (c) Steve Scherf et al.
# Submitted via: CDex 1.51
#
DISCID=a609950b
DTITLE=Alice Cooper - The Alice Cooper Show
DYEAR=1977
DGENRE=Hard Rock
TTITLE0=Under My Wheels (LIVE)
TTITLE1=Eighteen (LIVE)
TTITLE2=Only Women Bleed (LIVE)
TTITLE3=Sick Things (LIVE)
TTITLE4=Is It My Bodyp (LIVE)
TTITLE5=I Never Cry (LIVE)
TTITLE6=Billion Dollar Babies (LIVE)
TTITLE7=Devil's Food - The Black Widow (LIVE)
TTITLE8=You And Me (LIVE)
TTITLE9=I Love The Dead - Go To Hell - Wish You Were Here (LIVE)
TTITLE10=School's Out (LIVE)
EXTD=YEAR: 1977
EXTT0=
EXTT1=
EXTT2=
EXTT3=
EXTT4=
EXTT5=
EXTT6=
EXTT7=
EXTT8=
EXTT9=
EXTT10=
PLAYORDER=
